<svg width="38" height="37" viewBox="0 0 38 37" fill="none" xmlns="http://www.w3.org/2000/svg">
<path fill-rule="evenodd" clip-rule="evenodd" d="M19 0.411179C29.4934 0.411179 38 8.50214 38 18.4829V36.5545H19C8.50659 36.5545 0 28.4636 0 18.4829C-2.41597e-06 8.50214 8.50659 0.411179 19 0.411179Z" fill="#918EF4"/>
<path fill-rule="evenodd" clip-rule="evenodd" d="M9.93049 18.8352V18.5991C11.4619 18.4515 12.2105 17.7082 12.2105 16.2805V13.6764C12.2105 12.0909 12.8046 11.4475 14.2733 11.4475H14.6894V10.0494H14.1194C11.6608 10.0494 10.503 11.1494 10.503 13.4577V15.6661C10.503 17.2516 9.93302 17.7744 8.23315 17.7744V19.6569C9.93049 19.6569 10.503 20.1816 10.503 21.7653V23.9736C10.503 26.282 11.6595 27.3819 14.1168 27.3819H14.6868V25.9874H14.2707C12.802 25.9874 12.208 25.3441 12.208 23.7586V21.1538C12.2111 19.7274 11.4632 18.984 9.93049 18.8352ZM27.8669 18.5991V18.8352C26.3355 18.9846 25.5869 19.728 25.5869 21.1538V23.7592C25.5869 25.3447 24.9928 25.988 23.5241 25.988H23.108V27.385H23.678C26.1353 27.385 27.2918 26.285 27.2918 23.9766V21.7677C27.2918 20.1822 27.8618 19.6593 29.5617 19.6593V17.7756C27.8643 17.7756 27.2918 17.251 27.2918 15.6673V13.4577C27.2924 11.1494 26.1341 10.0494 23.6786 10.0494H23.1086V11.4463H23.5247C24.9934 11.4463 25.5875 12.0897 25.5875 13.6752V16.2805C25.5875 17.7064 26.3367 18.4491 27.8675 18.5991H27.8669Z" fill="white"/>
<path fill-rule="evenodd" clip-rule="evenodd" d="M19.3165 16.6757C20.5408 16.6757 21.5332 17.6196 21.5332 18.784V20.8924H19.3165C18.0923 20.8924 17.0999 19.9485 17.0999 18.784C17.0999 17.6196 18.0923 16.6757 19.3165 16.6757Z" fill="white"/>
</svg>
